<mxfile host="app.diagrams.net" modified="2023-02-16T09:13:28.536Z" agent="5.0 (Windows NT 10.0; Win64; x64) AppleWebKit/537.36 (KHTML, like Gecko) Chrome/109.0.0.0 Safari/537.36" etag="uQnj8nHeTsVC4n5h11mY" version="20.8.20" type="github">
  <diagram id="C5RBs43oDa-KdzZeNtuy" name="Page-1">
    <mxGraphModel dx="1434" dy="796" grid="1" gridSize="10" guides="1" tooltips="1" connect="1" arrows="1" fold="1" page="1" pageScale="1" pageWidth="827" pageHeight="1169" background="none" math="0" shadow="0">
      <root>
        <mxCell id="WIyWlLk6GJQsqaUBKTNV-0" />
        <mxCell id="WIyWlLk6GJQsqaUBKTNV-1" parent="WIyWlLk6GJQsqaUBKTNV-0" />
        <mxCell id="9IOt1-9wj0N7_gysFRMo-2" style="edgeStyle=orthogonalEdgeStyle;rounded=0;orthogonalLoop=1;jettySize=auto;html=1;exitX=0.5;exitY=1;exitDx=0;exitDy=0;entryX=0.5;entryY=0;entryDx=0;entryDy=0;" edge="1" parent="WIyWlLk6GJQsqaUBKTNV-1" source="9IOt1-9wj0N7_gysFRMo-0" target="9IOt1-9wj0N7_gysFRMo-1">
          <mxGeometry relative="1" as="geometry" />
        </mxCell>
        <mxCell id="9IOt1-9wj0N7_gysFRMo-0" value="START" style="ellipse;whiteSpace=wrap;html=1;" vertex="1" parent="WIyWlLk6GJQsqaUBKTNV-1">
          <mxGeometry x="360" y="40" width="120" height="80" as="geometry" />
        </mxCell>
        <mxCell id="9IOt1-9wj0N7_gysFRMo-5" style="edgeStyle=orthogonalEdgeStyle;rounded=0;orthogonalLoop=1;jettySize=auto;html=1;exitX=0.5;exitY=1;exitDx=0;exitDy=0;entryX=0.5;entryY=0;entryDx=0;entryDy=0;" edge="1" parent="WIyWlLk6GJQsqaUBKTNV-1" source="9IOt1-9wj0N7_gysFRMo-1" target="9IOt1-9wj0N7_gysFRMo-3">
          <mxGeometry relative="1" as="geometry" />
        </mxCell>
        <mxCell id="9IOt1-9wj0N7_gysFRMo-1" value="Pobierz wartość a" style="rounded=0;whiteSpace=wrap;html=1;" vertex="1" parent="WIyWlLk6GJQsqaUBKTNV-1">
          <mxGeometry x="360" y="140" width="120" height="60" as="geometry" />
        </mxCell>
        <mxCell id="9IOt1-9wj0N7_gysFRMo-16" style="edgeStyle=orthogonalEdgeStyle;rounded=0;orthogonalLoop=1;jettySize=auto;html=1;exitX=1;exitY=0.5;exitDx=0;exitDy=0;entryX=0;entryY=0.5;entryDx=0;entryDy=0;" edge="1" parent="WIyWlLk6GJQsqaUBKTNV-1" source="9IOt1-9wj0N7_gysFRMo-3" target="9IOt1-9wj0N7_gysFRMo-12">
          <mxGeometry relative="1" as="geometry" />
        </mxCell>
        <mxCell id="9IOt1-9wj0N7_gysFRMo-17" style="edgeStyle=orthogonalEdgeStyle;rounded=0;orthogonalLoop=1;jettySize=auto;html=1;exitX=0.5;exitY=1;exitDx=0;exitDy=0;entryX=0.5;entryY=0;entryDx=0;entryDy=0;" edge="1" parent="WIyWlLk6GJQsqaUBKTNV-1" source="9IOt1-9wj0N7_gysFRMo-3" target="9IOt1-9wj0N7_gysFRMo-13">
          <mxGeometry relative="1" as="geometry" />
        </mxCell>
        <mxCell id="9IOt1-9wj0N7_gysFRMo-3" value="a &amp;lt; 0" style="rhombus;whiteSpace=wrap;html=1;" vertex="1" parent="WIyWlLk6GJQsqaUBKTNV-1">
          <mxGeometry x="380" y="220" width="80" height="80" as="geometry" />
        </mxCell>
        <mxCell id="9IOt1-9wj0N7_gysFRMo-20" style="edgeStyle=orthogonalEdgeStyle;rounded=0;orthogonalLoop=1;jettySize=auto;html=1;exitX=0.5;exitY=1;exitDx=0;exitDy=0;entryX=1;entryY=0.5;entryDx=0;entryDy=0;" edge="1" parent="WIyWlLk6GJQsqaUBKTNV-1" source="9IOt1-9wj0N7_gysFRMo-12" target="9IOt1-9wj0N7_gysFRMo-13">
          <mxGeometry relative="1" as="geometry" />
        </mxCell>
        <mxCell id="9IOt1-9wj0N7_gysFRMo-12" value="a = a * (-1)" style="rounded=0;whiteSpace=wrap;html=1;" vertex="1" parent="WIyWlLk6GJQsqaUBKTNV-1">
          <mxGeometry x="510" y="230" width="120" height="60" as="geometry" />
        </mxCell>
        <mxCell id="9IOt1-9wj0N7_gysFRMo-21" style="edgeStyle=orthogonalEdgeStyle;rounded=0;orthogonalLoop=1;jettySize=auto;html=1;exitX=0.5;exitY=1;exitDx=0;exitDy=0;entryX=0.5;entryY=0;entryDx=0;entryDy=0;" edge="1" parent="WIyWlLk6GJQsqaUBKTNV-1" source="9IOt1-9wj0N7_gysFRMo-13" target="9IOt1-9wj0N7_gysFRMo-15">
          <mxGeometry relative="1" as="geometry" />
        </mxCell>
        <mxCell id="9IOt1-9wj0N7_gysFRMo-13" value="Wyświetl a" style="rounded=0;whiteSpace=wrap;html=1;" vertex="1" parent="WIyWlLk6GJQsqaUBKTNV-1">
          <mxGeometry x="360" y="340" width="120" height="60" as="geometry" />
        </mxCell>
        <mxCell id="9IOt1-9wj0N7_gysFRMo-15" value="STOP" style="ellipse;whiteSpace=wrap;html=1;" vertex="1" parent="WIyWlLk6GJQsqaUBKTNV-1">
          <mxGeometry x="360" y="420" width="120" height="80" as="geometry" />
        </mxCell>
        <mxCell id="9IOt1-9wj0N7_gysFRMo-18" value="TAK" style="text;html=1;align=center;verticalAlign=middle;resizable=0;points=[];autosize=1;strokeColor=none;fillColor=none;" vertex="1" parent="WIyWlLk6GJQsqaUBKTNV-1">
          <mxGeometry x="460" y="230" width="50" height="30" as="geometry" />
        </mxCell>
        <mxCell id="9IOt1-9wj0N7_gysFRMo-19" value="NIE" style="text;html=1;align=center;verticalAlign=middle;resizable=0;points=[];autosize=1;strokeColor=none;fillColor=none;" vertex="1" parent="WIyWlLk6GJQsqaUBKTNV-1">
          <mxGeometry x="420" y="300" width="40" height="30" as="geometry" />
        </mxCell>
      </root>
    </mxGraphModel>
  </diagram>
</mxfile>
